<svg width="458" height="500" viewBox="0 0 458 500" fill="none" xmlns="http://www.w3.org/2000/svg">
<path d="M423.38 398.817C423.38 398.817 391.032 491.056 387.566 491.056C384.1 491.056 314.782 512.963 376.013 485.291C376.013 485.291 382.945 384.981 393.343 380.369C403.74 375.758 423.38 398.817 423.38 398.817Z" fill="#965450"/>
<path d="M399.119 465.229C409.632 437.903 423.38 398.817 423.38 398.817C423.38 398.817 403.74 375.758 393.343 380.369C386.642 383.367 381.328 426.489 378.439 456.466C385.371 459.234 392.187 462.231 399.119 465.229Z" fill="#76413B"/>
<path d="M365.962 490.249C365.962 490.249 363.305 496.36 388.721 489.903L387.566 493.362C387.566 493.362 315.938 510.196 365.962 490.249Z" fill="#051F38"/>
<path d="M403.739 359.731C403.739 359.731 453.764 443.784 451.569 446.436C449.374 449.087 421.647 516.191 439.669 451.509C439.669 451.509 367.117 381.753 370.236 370.8C373.471 359.962 403.739 359.731 403.739 359.731Z" fill="#965450"/>
<path d="M437.128 462.347C437.128 462.347 440.132 468.342 451.454 444.706L453.418 447.819C453.303 447.819 420.261 513.539 437.128 462.347Z" fill="#051F38"/>
<path d="M432.854 409.771C419.452 386.134 403.74 359.731 403.74 359.731C403.74 359.731 373.471 359.962 370.237 370.8C368.157 377.833 397.964 409.655 419.106 431.101C419.221 431.216 427.424 422.108 432.854 409.771Z" fill="#76413B"/>
<path d="M435.51 233.364C435.51 233.364 404.894 199.351 386.987 220.681C369.08 242.011 341.353 312.343 345.396 341.168C347.822 358.117 364.112 376.219 377.167 388.325L366.192 450.125C366.192 450.125 411.248 462.231 408.36 462.231C406.627 462.231 452.839 338.286 457.46 299.084C462.081 259.883 435.51 233.364 435.51 233.364Z" fill="#8257E6"/>
<path opacity="0.2" d="M412.058 240.974C420.608 240.858 429.965 239.705 438.168 236.362C436.551 234.402 435.511 233.364 435.511 233.364C435.511 233.364 404.895 199.351 386.988 220.681C384.216 224.025 381.212 228.406 378.208 233.71C388.259 239.244 400.967 241.204 412.058 240.974Z" fill="#352C38"/>
<path opacity="0.2" d="M366.193 257.461C353.485 286.401 342.74 322.374 345.398 341.053C347.708 357.886 363.882 375.873 376.937 387.979C381.558 356.618 389.992 313.035 395.075 287.9C382.483 280.752 372.085 270.49 366.193 257.461Z" fill="#352C38"/>
<path d="M347.131 165.337L328.646 201.08C328.646 201.08 296.297 183.208 291.676 183.208C287.055 183.208 265.104 183.785 275.502 188.397C275.502 188.397 270.881 191.279 276.08 192.432C276.08 192.432 271.458 196.468 277.235 197.044L290.521 196.468C290.521 196.468 317.093 220.68 330.379 224.139C343.665 227.598 365.038 182.632 365.038 182.632L347.131 165.337Z" fill="#965450"/>
<path d="M350.134 190.934C353.023 191.972 356.026 193.01 359.03 194.047C362.727 187.59 365.038 182.517 365.038 182.517L347.131 165.223L336.964 184.823C341.008 187.36 345.513 189.32 350.134 190.934Z" fill="#76413B"/>
<path d="M370.236 148.043C370.236 148.043 352.907 145.161 346.552 154.385C340.198 163.608 337.31 178.597 337.31 178.597L362.149 190.704L370.236 148.043Z" fill="#34CB79"/>
<path opacity="0.1" d="M360.648 180.673C354.294 175.715 347.015 169.489 342.279 161.994C338.813 170.065 337.195 178.482 337.195 178.482L362.034 190.588L363.536 182.748C362.612 182.171 361.572 181.48 360.648 180.673Z" fill="#161826"/>
<path d="M248.699 178.943C249.392 180.788 248.353 182.863 246.504 183.555L232.872 188.513C231.023 189.205 228.944 188.167 228.251 186.322L222.821 171.218C222.127 169.373 223.167 167.298 225.016 166.606L238.648 161.648C240.497 160.957 242.576 161.994 243.269 163.839L248.699 178.943Z" fill="#23173B"/>
<path d="M259.674 167.644L216.928 182.979C209.419 185.63 205.607 193.932 208.264 201.426L221.434 237.976C224.091 245.47 232.409 249.275 239.919 246.623L282.665 231.289C290.174 228.637 293.987 220.335 291.33 212.841L278.159 176.291C275.387 168.797 267.184 164.877 259.674 167.644ZM287.171 216.185C288.21 219.182 286.708 222.526 283.705 223.564L265.335 172.832C268.339 171.795 271.69 173.293 272.729 176.291L287.171 216.185Z" fill="#322153"/>
<path d="M245.926 163.608C246.504 165.223 245.695 167.067 244.078 167.644L224.669 174.677C223.052 175.254 221.203 174.446 220.625 172.832L219.008 168.336C218.43 166.721 219.239 164.877 220.856 164.3L240.265 157.267C241.883 156.69 243.731 157.498 244.309 159.112L245.926 163.608Z" fill="#8257E6"/>
<path d="M273.192 185.515C273.192 185.515 280.47 182.979 281.741 184.477C282.896 185.861 275.618 187.936 275.964 188.052C276.195 188.167 283.82 186.437 284.514 188.052C285.207 189.666 276.426 192.548 276.426 192.548C276.426 192.548 284.745 190.242 285.322 191.972C285.9 193.701 276.657 196.238 276.657 196.238L276.195 192.433L275.618 188.052L273.192 185.515Z" fill="#965450"/>
<path d="M283.474 183.555C283.474 183.555 277.813 179.75 277.813 178.482C277.697 177.098 292.832 183.44 292.832 183.44L283.474 183.555Z" fill="#965450"/>
<path d="M395.075 145.161C393.92 147.236 399.581 98.926 399.581 98.926L373.356 116.567C373.356 116.567 375.666 147.467 372.778 147.582C371.623 147.582 367.117 149.311 362.149 151.156C363.305 156.921 365.615 158.189 367.579 163.724C382.252 163.608 398.195 163.263 407.206 149.888C402.007 148.158 396.577 142.278 395.075 145.161Z" fill="#76413B"/>
<path d="M370.237 148.043L369.081 144.008L397.964 137.666L399.119 144.584C399.119 144.584 433.778 156.114 438.399 182.056C443.02 207.998 440.71 224.717 435.511 233.364C435.511 233.364 395.075 239.129 377.746 230.482C360.417 221.834 342.509 157.267 351.752 151.502C360.994 145.737 370.237 148.043 370.237 148.043Z" fill="#34CB79"/>
<path opacity="0.1" d="M408.015 219.874C394.151 219.067 377.168 217.453 365.615 208.921C363.42 207.306 361.456 205.577 359.608 203.617C364.807 216.415 371.276 227.253 377.746 230.481C395.076 239.129 435.511 233.364 435.511 233.364C437.822 229.559 439.555 224.14 440.363 216.992C429.966 220.105 419.106 220.566 408.015 219.874Z" fill="#161826"/>
<path d="M406.628 199.927L436.088 197.621C436.088 197.621 428.579 249.505 419.914 267.377C411.25 285.248 371.392 355.58 386.988 316.378C386.988 316.378 366.771 346.933 384.1 315.802C384.1 315.802 365.038 340.591 381.789 314.073C381.789 314.073 362.149 336.556 382.945 304.849C382.945 304.849 367.348 312.343 384.678 299.66L401.429 255.847L406.628 199.927Z" fill="#965450"/>
<path d="M435.395 201.772C435.857 199.12 436.088 197.506 436.088 197.506L406.628 199.812L406.397 202.81C415.986 202.81 425.691 202.349 435.395 201.772Z" fill="#76413B"/>
<path d="M375.782 67.9108C375.782 67.9108 390.455 59.3787 411.943 73.4451C426.153 82.7843 425.46 112.647 394.729 132.247C358.222 155.538 375.782 67.9108 375.782 67.9108Z" fill="#051F38"/>
<path d="M396.116 83.8219C396.116 83.8219 379.595 71.0238 365.5 77.2499C347.709 85.3208 349.557 104.114 349.21 120.141C348.748 141.471 365.616 145.507 370.699 145.737C378.208 146.198 408.824 144.354 396.116 83.8219Z" fill="#965450"/>
<path d="M397.733 103.769C397.733 103.769 398.426 100.54 403.972 103.077C411.019 106.42 407.207 123.254 399.35 122.793C391.379 122.447 397.733 103.769 397.733 103.769Z" fill="#965450"/>
<path d="M397.733 103.769C397.733 103.769 398.657 115.298 396 115.414C393.227 115.529 390.339 94.5447 397.964 94.5447C405.589 94.7753 397.733 103.769 397.733 103.769Z" fill="#051F38"/>
<path d="M397.733 103.769C397.733 103.769 392.072 78.1724 358.453 82.4384C358.453 82.4384 363.305 72.8686 373.934 68.372C388.375 62.2612 409.979 86.8197 403.971 103.077C403.971 103.077 401.199 103.423 397.733 103.769Z" fill="#34CB79"/>
<path d="M411.943 80.1324C411.943 80.1324 410.094 49.5783 417.488 49.5783C424.882 49.5783 416.911 75.2899 416.911 75.2899C416.911 75.2899 423.034 38.5097 440.825 44.044C458.617 49.5783 427.886 75.2899 427.886 75.2899C427.886 75.2899 441.981 62.3765 446.948 66.7578C451.801 71.0238 426.731 79.6712 426.731 79.6712C426.731 79.6712 445.793 74.1369 448.219 83.3608C450.645 92.4693 411.365 91.2011 411.943 80.1324Z" fill="#051F38"/>
<path d="M350.134 97.8889C350.134 97.8889 350.134 97.6583 350.365 97.1971C350.596 96.7359 350.828 96.1594 351.405 95.5829C351.983 95.0064 352.676 94.3146 353.6 93.8534C353.831 93.7381 354.062 93.6228 354.409 93.5075C354.64 93.3922 354.987 93.2769 355.218 93.2769C355.564 93.2769 355.795 93.1616 356.142 93.1616H357.066C357.644 93.1616 358.221 93.3922 358.799 93.6228C359.377 93.8534 359.839 94.084 360.301 94.4299C360.763 94.7758 361.11 95.1217 361.456 95.4676C361.803 95.8135 362.034 96.1594 362.149 96.5053C362.265 96.6206 362.381 96.8512 362.381 96.9665C362.496 97.0818 362.496 97.3124 362.612 97.4277C362.727 97.7736 362.843 98.0042 362.843 98.2348C362.958 98.6959 362.958 98.9265 362.958 98.9265C362.958 98.9265 362.727 98.8112 362.265 98.696C362.034 98.5807 361.803 98.4653 361.572 98.3501C361.341 98.2348 360.994 98.1195 360.648 97.8889C360.301 97.7736 360.07 97.543 359.723 97.4277C359.377 97.3124 359.03 97.1971 358.684 97.0818C358.337 96.9665 357.99 96.8512 357.644 96.7359C357.297 96.7359 356.951 96.6206 356.604 96.6206H356.142C356.026 96.6206 355.795 96.6206 355.564 96.6206C355.218 96.6206 354.871 96.7359 354.524 96.7359C354.178 96.8512 353.831 96.8512 353.485 96.9665C353.138 97.0818 352.792 97.0818 352.445 97.1971C351.752 97.4277 351.174 97.543 350.828 97.6583C350.481 97.8889 350.134 97.8889 350.134 97.8889Z" fill="#051F38"/>
<path d="M359.03 129.595C359.03 129.595 377.977 130.172 379.248 129.941C380.403 129.711 368.619 138.935 359.03 129.595Z" fill="white"/>
<path d="M360.301 108.496C360.301 108.496 360.301 108.726 360.185 109.188C360.07 109.649 359.954 110.225 359.723 111.032C359.608 111.378 359.492 111.839 359.261 112.185C359.146 112.416 359.03 112.647 358.915 112.762C358.799 112.992 358.568 113.223 358.453 113.338C358.106 113.684 357.759 114.145 357.182 114.376C357.066 114.491 356.951 114.491 356.72 114.607L356.373 114.722C356.142 114.837 355.795 114.837 355.449 114.837C354.871 114.837 354.178 114.722 353.716 114.261C353.254 113.915 352.907 113.454 352.676 112.877C352.445 112.416 352.329 111.955 352.214 111.494C352.098 111.032 352.098 110.571 352.098 110.225C352.098 109.418 352.098 108.842 352.214 108.381C352.329 107.919 352.445 107.689 352.445 107.689C352.445 107.689 352.445 108.726 352.792 110.225C352.907 110.917 353.138 111.839 353.6 112.531C353.831 112.877 354.062 113.223 354.409 113.454C354.756 113.684 355.102 113.8 355.449 113.8C355.68 113.8 355.795 113.8 356.026 113.684L356.373 113.569C356.373 113.569 356.489 113.454 356.604 113.454C356.951 113.338 357.297 112.992 357.644 112.762C357.99 112.416 358.221 112.07 358.453 111.724C358.684 111.378 358.915 111.032 359.03 110.686C359.377 109.995 359.608 109.418 359.839 109.072C360.185 108.726 360.301 108.496 360.301 108.496Z" fill="#1F2733"/>
<path d="M379.363 109.995C379.363 109.995 379.363 110.225 379.248 110.686C379.132 111.148 379.017 111.724 378.786 112.531C378.67 112.877 378.555 113.338 378.324 113.684C378.208 113.915 378.093 114.145 377.977 114.261C377.862 114.491 377.63 114.722 377.515 114.837C377.168 115.183 376.822 115.644 376.244 115.875C376.129 115.99 376.013 115.99 375.782 116.106L375.435 116.221C375.204 116.336 374.858 116.336 374.511 116.336C373.934 116.336 373.24 116.221 372.778 115.76C372.316 115.414 371.97 114.953 371.738 114.376C371.507 113.915 371.392 113.454 371.276 112.992C371.161 112.531 371.161 112.07 371.161 111.724C371.161 110.917 371.161 110.341 371.276 109.879C371.392 109.418 371.507 109.188 371.507 109.188C371.507 109.188 371.507 110.225 371.854 111.724C371.97 112.416 372.201 113.338 372.663 114.03C372.894 114.376 373.125 114.722 373.471 114.953C373.818 115.183 374.165 115.298 374.511 115.298C374.742 115.298 374.858 115.298 375.089 115.183L375.435 115.068C375.435 115.068 375.551 114.953 375.666 114.953C376.013 114.837 376.36 114.491 376.706 114.261C377.053 113.915 377.284 113.569 377.515 113.223C377.746 112.877 377.977 112.531 378.093 112.185C378.439 111.494 378.67 110.917 378.901 110.571C379.248 110.225 379.363 109.995 379.363 109.995Z" fill="#1F2733"/>
<path d="M400.39 119.565C400.736 119.103 400.967 118.757 401.198 118.296C401.43 117.835 401.545 117.374 401.661 116.913C401.661 116.682 401.661 116.451 401.661 116.221C401.661 116.106 401.545 115.99 401.545 115.99C401.545 115.875 401.43 115.76 401.314 115.76C401.198 115.644 401.198 115.644 401.083 115.529L400.852 115.298C400.736 115.183 400.621 115.183 400.505 115.183L400.159 115.068L399.928 114.953V114.722C399.581 113.454 399.466 112.301 399.35 111.032C399.234 110.456 399.234 109.764 399.35 109.188C399.35 108.496 399.466 107.919 399.697 107.228C399.812 106.882 400.043 106.536 400.39 106.305C400.736 106.075 401.198 105.844 401.545 105.959C402.007 105.959 402.238 106.075 402.585 106.19C402.931 106.305 403.278 106.421 403.509 106.651C403.74 106.882 404.087 107.112 404.202 107.343C404.433 107.574 404.549 107.919 404.664 108.15C404.895 108.726 405.011 109.418 404.895 109.995C404.78 109.418 404.664 108.842 404.318 108.265C404.202 108.035 403.971 107.804 403.74 107.573C403.509 107.343 403.278 107.228 403.047 107.112C402.816 106.997 402.585 106.882 402.238 106.882C402.007 106.882 401.661 106.766 401.43 106.766C400.967 106.766 400.736 107.112 400.621 107.573C400.274 108.611 400.39 109.764 400.39 110.917C400.505 112.07 400.621 113.338 400.852 114.491L400.621 114.146L400.967 114.376C401.083 114.491 401.198 114.491 401.314 114.607L401.661 114.837C401.776 114.953 401.892 115.068 402.007 115.183C402.123 115.299 402.238 115.414 402.238 115.644C402.354 115.76 402.354 115.99 402.354 116.106C402.469 116.451 402.354 116.682 402.354 117.028C402.238 117.604 401.892 118.066 401.545 118.527C401.198 118.873 400.736 119.334 400.39 119.565Z" fill="#76413B"/>
<path d="M362.034 124.407C361.456 124.522 360.994 124.522 360.532 124.522C360.07 124.522 359.608 124.407 359.261 124.292C358.799 124.176 358.453 123.946 358.106 123.831C357.875 123.715 357.759 123.6 357.528 123.485C357.297 123.369 357.182 123.254 356.951 123.139L356.258 122.562L356.373 122.101C357.528 118.757 358.684 115.529 359.839 112.301C360.994 109.072 362.265 105.729 363.536 102.5C362.727 105.844 361.803 109.303 360.994 112.647C360.07 115.99 359.146 119.334 358.222 122.678L357.759 121.64C357.991 121.64 358.222 121.755 358.453 121.755C358.684 121.755 358.915 121.87 359.03 121.986C359.377 122.101 359.839 122.332 360.186 122.562C360.532 122.793 360.879 123.139 361.225 123.485C361.456 123.6 361.803 123.946 362.034 124.407Z" fill="#76413B"/>
<path d="M368.85 96.5048C368.85 96.5048 368.966 96.1589 369.312 95.813C369.543 95.5824 369.659 95.3518 370.005 95.0059C370.352 94.7753 370.583 94.4294 371.045 94.1988C371.392 93.9682 371.854 93.6223 372.432 93.3917C372.894 93.1611 373.471 92.9306 374.049 92.7C374.627 92.5847 375.32 92.3541 376.013 92.3541C376.36 92.3541 376.706 92.3541 377.053 92.3541L378.093 92.4694C378.786 92.4694 379.479 92.8153 380.057 92.9306C380.634 93.1612 381.212 93.507 381.789 93.7376C382.367 94.0835 382.829 94.4294 383.176 94.7753C383.638 95.1212 383.985 95.5824 384.216 95.9283C384.562 96.2742 384.793 96.6201 385.024 96.966C385.255 97.3119 385.371 97.6578 385.486 97.8884C385.718 98.3496 385.833 98.6955 385.833 98.6955C385.833 98.6955 385.486 98.5802 385.024 98.3496C384.793 98.2343 384.447 98.119 384.1 97.8884C383.753 97.6578 383.407 97.5425 382.945 97.4272C382.598 97.3119 382.136 97.0813 381.674 96.8507C381.212 96.7354 380.75 96.5048 380.288 96.3895C379.825 96.2742 379.363 96.1589 378.901 96.0436C378.439 96.0436 377.977 95.813 377.399 95.813L376.706 95.6977H376.013C375.551 95.6977 374.973 95.6977 374.511 95.6977C374.049 95.6977 373.587 95.6977 373.125 95.813C372.663 95.813 372.201 95.9283 371.738 95.9283C370.93 96.0436 370.121 96.1589 369.659 96.2742C369.197 96.5048 368.85 96.5048 368.85 96.5048Z" fill="#051F38"/>
<path d="M352.907 490.825C352.907 494.976 349.557 498.435 345.398 498.55C341.238 498.55 337.773 495.207 337.657 491.056L337.31 466.613C337.31 462.462 340.661 459.003 344.82 458.888C348.979 458.888 352.445 462.231 352.56 466.382L352.907 490.825Z" fill="#091E1D"/>
<path d="M246.504 492.095C246.504 496.245 243.154 499.704 238.995 499.82C234.836 499.82 231.37 496.476 231.254 492.325L230.908 467.882C230.908 463.731 234.258 460.272 238.417 460.157C242.576 460.157 246.042 463.501 246.158 467.651L246.504 492.095Z" fill="#091E1D"/>
<path d="M344.358 473.415C344.473 482.87 336.848 490.595 327.375 490.71L256.209 491.517C246.735 491.633 238.995 484.023 238.879 474.568L231.254 312.92C231.139 303.466 238.764 295.741 248.237 295.625L330.841 294.588C340.314 294.472 348.055 302.082 348.17 311.536L344.358 473.415Z" fill="#34CB79"/>
<path opacity="0.1" d="M347.708 327.793L348.055 311.767C347.939 302.312 340.199 294.703 330.725 294.818L248.122 295.856C238.648 295.971 231.023 303.696 231.139 313.151L231.947 329.177L347.708 327.793Z" fill="#161826"/>
<path d="M361.803 307.732C361.803 310.383 359.723 312.459 357.066 312.574L222.127 314.188C219.47 314.188 217.391 312.113 217.275 309.461L217.044 292.397C217.044 289.745 219.124 287.67 221.781 287.554L356.72 285.94C359.377 285.94 361.456 288.016 361.572 290.667L361.803 307.732Z" fill="#34CB79"/>
<path d="M290.174 355.119L305.886 345.665L302.074 355.465L290.174 355.119Z" fill="white"/>
<path d="M284.282 340.246C284.282 340.246 285.553 340.246 287.517 343.243C289.481 346.241 293.871 354.312 293.871 354.312L301.843 350.738L303.691 347.625C303.691 347.625 300.226 340.707 297.453 340.246H284.282Z" fill="white"/>
<path d="M279.892 342.321C279.892 342.321 282.318 339.669 284.282 341.053C286.246 342.437 289.712 348.202 289.712 348.202L284.051 358.117L273.885 352.468L279.892 342.321Z" fill="white"/>
<path d="M297.337 367.456L298.146 385.673L291.33 377.718L297.337 367.456Z" fill="white"/>
<path d="M313.28 369.301C313.28 369.301 312.703 370.454 309.121 370.8C305.54 371.146 296.297 371.146 296.297 371.146L295.604 379.908L297.453 383.021C297.453 383.021 305.193 383.367 306.926 381.061L313.28 369.301Z" fill="white"/>
<path d="M313.396 364.458C313.396 364.458 314.667 367.802 312.472 368.955C310.392 369.993 303.576 370.223 303.576 370.223L297.453 360.538L307.273 354.197L313.396 364.458Z" fill="white"/>
<path d="M283.472 367.226L267.298 358.693L277.695 356.849L283.472 367.226Z" fill="white"/>
<path d="M273.885 380.024C273.885 380.024 273.192 378.986 274.694 375.758C276.195 372.529 280.817 364.574 280.817 364.574L273.654 359.616L270.072 359.731C270.072 359.731 265.913 366.303 266.953 368.84L273.885 380.024Z" fill="white"/>
<path d="M277.928 382.56C277.928 382.56 274.347 381.868 274.578 379.562C274.693 377.141 277.928 371.261 277.928 371.261L289.366 370.915L289.828 382.56H277.928Z" fill="white"/>
<path d="M42.2474 445.167C42.2474 445.167 39.7058 485.868 37.5107 486.675C29.077 489.557 -34.5799 505.699 25.6112 478.604L23.9937 448.972L42.2474 445.167Z" fill="#051F38"/>
<path d="M39.5902 476.759C41.0921 464.422 42.2474 445.167 42.2474 445.167L23.9937 448.972L25.4955 475.376C30.0012 476.644 35.2 476.759 39.5902 476.759Z" fill="#041523"/>
<path d="M0.0790277 492.786C-1.76945 497.282 31.5031 488.75 37.5107 486.675C37.6262 486.559 37.8573 486.329 38.0883 485.752C30.5789 487.828 7.81952 493.016 0.0790277 492.786Z" fill="white"/>
<path d="M81.1809 442.977C81.1809 442.977 84.5313 483.677 86.8419 484.369C95.3911 487.136 159.279 502.01 98.5104 476.067L99.5502 446.436L81.1809 442.977Z" fill="#051F38"/>
<path d="M84.5313 474.453C82.7983 462.232 81.1809 442.977 81.1809 442.977L99.5502 446.436L98.6259 472.839C94.1203 474.223 88.9214 474.338 84.5313 474.453Z" fill="#041523"/>
<path d="M124.389 489.788C126.353 494.284 92.8495 486.329 86.8419 484.369C86.6109 484.369 86.4953 484.023 86.2643 483.446C93.7737 485.522 116.649 490.249 124.389 489.788Z" fill="white"/>
<path d="M92.3873 223.218C92.3873 223.218 109.024 357.31 105.673 465.806C105.673 465.806 85.8022 471.34 80.6033 467.305C76.0976 441.593 76.6753 391.554 69.9746 354.427C63.6204 319.377 61.0788 290.667 61.0788 290.667L58.9992 288.361C58.9992 288.361 45.3667 457.85 42.363 470.764C25.149 474.799 19.7191 470.072 19.7191 470.072C19.7191 470.072 11.8631 258.038 16.7154 223.794C22.954 179.059 92.3873 223.218 92.3873 223.218Z" fill="#34CB79"/>
<path opacity="0.1" d="M95.3899 251.004C93.657 233.709 92.2706 223.333 92.2706 223.333C92.2706 223.333 22.9527 179.173 16.5986 223.909C16.0209 228.06 15.6743 234.862 15.3278 243.51C20.5266 246.392 85.4543 255.616 95.3899 251.004Z" fill="#161826"/>
<path opacity="0.1" d="M59.808 286.978C60.6167 296.086 64.7758 325.488 69.9746 354.427C76.6753 391.669 76.0977 441.593 80.6033 467.305C85.8022 471.34 105.673 465.806 105.673 465.806C107.637 399.048 102.207 322.605 97.5862 273.719C86.6109 280.636 72.6318 283.98 59.808 286.978Z" fill="#161826"/>
<path d="M65.7 105.959C65.8155 91.8928 66.8553 73.3298 66.8553 73.3298L39.1281 65.7201C39.1281 65.7201 40.0524 90.8552 40.8611 106.19C28.2683 110.456 13.9426 118.527 13.9426 118.527L66.2776 131.786L84.8779 113.8C84.8779 113.8 75.52 109.072 65.7 105.959Z" fill="#FFB39F"/>
<path d="M65.7 105.959C65.8155 91.8928 66.8553 73.3298 66.8553 73.3298L39.1281 65.7201C39.1281 65.7201 40.0524 90.8552 40.8611 106.19C28.2683 110.456 13.9426 118.527 13.9426 118.527L66.2776 131.786L91.001 110.571C91.001 110.571 75.6355 104.806 65.7 105.959Z" fill="#E09B8D"/>
<path d="M36.7019 39.0862C36.7019 39.0862 43.9803 15.5653 63.1582 19.2549C82.3362 22.9444 85.1089 47.9642 87.535 64.7978C89.9611 81.7466 84.5313 96.966 69.5124 98.8108C56.4575 100.425 33.6981 97.8884 36.7019 39.0862Z" fill="#FFB39F"/>
<path d="M37.6262 58.8022C37.6262 58.8022 36.4709 55.6891 31.7342 59.1481C25.7266 63.5294 31.8497 79.6712 39.1281 77.9418C46.4065 76.2123 37.6262 58.8022 37.6262 58.8022Z" fill="#FFB39F"/>
<path d="M30.9254 25.5963C31.3876 25.481 40.3989 24.7892 34.3913 25.3657C39.9368 31.3612 39.3591 32.8601 46.9841 34.2436C51.0276 46.6959 43.0561 54.1903 43.0561 54.1903L45.2511 69.1791L39.4747 69.7556C39.4747 69.7556 39.5902 59.3787 35.2001 58.4563C30.8099 57.5339 29.5391 62.8377 29.5391 62.8377C20.4122 51.3078 11.1699 28.7093 30.9254 25.5963Z" fill="#051F38"/>
<path d="M83.2604 17.1795C86.9574 8.07089 80.7188 0 80.7188 0C81.7585 3.34366 81.2964 6.45671 80.2566 8.99328C79.5634 6.45671 78.2926 3.68955 75.982 0.922387C75.982 0.922387 76.6752 10.1463 64.0825 8.99328C51.4897 7.84029 29.4235 9.56977 28.4993 29.0552C27.4595 48.5407 46.2909 34.3589 46.2909 34.3589C46.2909 34.3589 83.8381 44.8511 89.268 14.6429L83.2604 17.1795Z" fill="#051F38"/>
<path d="M65.4689 50.8476C65.4689 50.8476 65.1223 50.8476 64.6602 50.7323C64.0826 50.617 63.3894 50.5017 62.5807 50.3864C62.1186 50.2711 61.772 50.2711 61.3099 50.2711C60.8477 50.1558 60.3856 50.1558 59.9235 50.1558C59.4614 50.1558 58.9993 50.1558 58.4216 50.1558C58.1906 50.1558 57.9595 50.1558 57.7284 50.1558L57.0353 50.2711C56.5731 50.2711 56.111 50.3864 55.5334 50.5017C55.0713 50.617 54.6091 50.7323 54.147 50.8476C53.6849 50.9629 53.2228 51.1935 52.7607 51.3088C52.2985 51.4241 51.9519 51.6547 51.4898 51.77C51.1432 51.8853 50.6811 52.0006 50.4501 52.2312C50.1035 52.3465 49.8724 52.4618 49.6414 52.5771C49.1792 52.8077 48.8326 52.923 48.8326 52.923C48.8326 52.923 48.9482 52.5771 49.1792 52.1159C49.2948 51.8853 49.4103 51.5394 49.6414 51.1935C49.8724 50.8476 50.1035 50.5017 50.4501 50.1558C50.7966 49.8099 51.0277 49.3487 51.4898 49.0028C51.9519 48.6569 52.4141 48.311 52.9917 47.9651C53.5694 47.7345 54.147 47.3886 54.7247 47.158C55.4178 46.9274 55.9955 46.8121 56.6887 46.6968L57.7284 46.5815C58.075 46.5815 58.4216 46.5815 58.7682 46.6968C59.1148 46.6968 59.4614 46.8121 59.6924 46.8121C60.039 46.9274 60.2701 46.9274 60.6167 47.0427C61.1943 47.2733 61.772 47.3886 62.2341 47.7345C62.6962 47.9651 63.1583 48.311 63.6205 48.5416C63.967 48.7722 64.3136 49.1181 64.6602 49.3487C64.8913 49.5793 65.1223 49.9252 65.3534 50.0405C65.2379 50.5017 65.4689 50.8476 65.4689 50.8476Z" fill="#051F38"/>
<path d="M84.9934 50.2702C84.9934 50.2702 84.7624 50.1549 84.3002 50.0396C83.8381 49.9243 83.2605 49.6937 82.6828 49.4631C82.3362 49.3478 81.9897 49.2325 81.6431 49.1172C81.2965 49.0019 80.9499 48.8866 80.6033 48.8866C80.2567 48.8866 79.9101 48.7713 79.5635 48.656C79.448 48.656 79.2169 48.656 79.1014 48.5407H78.6393C78.2927 48.4254 77.9461 48.656 77.5995 48.5407C77.2529 48.656 76.9063 48.656 76.5598 48.7713C76.2132 48.8866 75.8666 49.0019 75.52 49.1172C75.1734 49.2325 74.8268 49.3478 74.5958 49.4631C74.2492 49.5784 73.9026 49.6937 73.6715 49.809C73.4405 49.9243 73.2094 50.0396 72.9783 50.0396C72.5162 50.1549 72.2852 50.2702 72.2852 50.2702C72.2852 50.2702 72.2852 50.0396 72.5162 49.5784C72.6317 49.3478 72.6317 49.1172 72.8628 48.7713C72.9783 48.4254 73.2094 48.1948 73.4405 47.8489C73.6715 47.503 73.9026 47.1571 74.2492 46.8112C74.5957 46.4653 75.0579 46.2347 75.4045 45.8888C75.8666 45.6582 76.4442 45.4276 76.9063 45.197C77.484 45.0817 78.0616 44.9664 78.6393 44.9664C78.9859 44.9664 79.2169 44.9664 79.5635 44.9664C79.9101 44.9664 80.1412 45.0817 80.3722 45.197C80.6033 45.197 80.9499 45.3123 81.1809 45.4276C81.412 45.5429 81.6431 45.6582 81.8741 45.7735C82.7984 46.35 83.4916 46.9265 83.9537 47.6183C84.4158 48.3101 84.6468 48.8866 84.8779 49.3478C84.9934 50.0396 84.9934 50.2702 84.9934 50.2702Z" fill="#051F38"/>
<path d="M70.7833 51.5385C71.4765 53.0373 72.1697 54.6515 72.8629 56.1504C73.2095 56.9575 73.4405 57.6493 73.7871 58.4564L74.7113 60.7623L75.6356 63.0683C75.9822 63.8754 76.2132 64.5672 76.5598 65.3743L77.0219 66.5273C77.1375 66.8731 77.3685 67.3343 77.4841 67.6802C77.8306 68.372 78.1772 69.0638 78.5238 69.8709L78.8704 70.7933L78.1772 71.1392C77.1375 71.6004 76.0977 72.1769 74.9424 72.6381C73.9026 73.0993 72.7473 73.5605 71.592 73.9064C72.5163 73.0993 73.4405 72.4075 74.3648 71.7157C75.289 71.0239 76.3288 70.3321 77.253 69.6403L76.9064 70.9086C76.4443 70.2168 75.9822 69.4097 75.5201 68.7179C75.0579 68.0261 74.7113 67.219 74.3648 66.412L73.7871 65.259L73.325 64.106C73.0939 63.2989 72.7473 62.4918 72.5163 61.6847L71.8231 59.2634C71.592 58.4564 71.4765 57.6493 71.2455 56.8422C71.1299 54.9974 70.8989 53.2679 70.7833 51.5385Z" fill="#DD9078"/>
<path d="M37.2796 74.5981C36.8175 74.3675 36.3553 74.0216 36.0087 73.5604C35.6622 73.2145 35.2 72.7533 34.969 72.1769C34.8535 71.9463 34.7379 71.6004 34.7379 71.2545C34.7379 71.1392 34.7379 70.9086 34.7379 70.7933C34.7379 70.678 34.8535 70.4474 34.8535 70.3321C34.969 69.9862 35.2 69.7556 35.4311 69.525C35.5466 69.4097 35.6622 69.2944 35.7777 69.1791L36.1243 68.9485L35.8932 69.2944C35.8932 68.0261 35.8932 66.7578 35.7777 65.6048C35.6622 64.3366 35.5466 63.0683 35.0845 62.0306C34.969 61.8 34.8535 61.5694 34.6224 61.4541C34.5069 61.3388 34.2758 61.2235 34.0447 61.2235C33.9292 61.2235 33.8137 61.2235 33.6982 61.3388C33.5826 61.3388 33.3516 61.4541 33.236 61.4541C33.005 61.5694 32.7739 61.6847 32.5429 61.9153C32.3118 62.1459 32.0807 62.2612 31.9652 62.4918C31.8497 62.7224 31.6186 62.953 31.5031 63.2989C31.272 63.8754 31.1565 64.4519 31.1565 65.1436C30.9254 64.5671 30.9254 63.8754 31.041 63.1836C31.041 62.8377 31.1565 62.4918 31.3876 62.2612C31.5031 61.9153 31.7341 61.6847 31.9652 61.4541L32.3118 61.1082L32.7739 60.7623C32.8895 60.647 33.1205 60.647 33.236 60.5317C33.3516 60.4164 33.5826 60.4164 33.8137 60.3011C34.2758 60.1858 34.7379 60.3011 35.0845 60.647C35.4311 60.8776 35.6622 61.2235 35.7777 61.5694C36.1243 62.2612 36.2398 62.8377 36.4709 63.5295C36.5864 64.2213 36.7019 64.7977 36.7019 65.4895C36.8175 66.7578 36.8175 68.0261 36.7019 69.4097V69.6403L36.4709 69.7556C36.2398 69.8709 36.0088 69.9862 35.8932 70.2168C35.7777 70.3321 35.5466 70.5627 35.4311 70.678C35.3156 70.7933 35.3156 70.9086 35.3156 71.0239C35.3156 71.1392 35.2 71.2545 35.2 71.3698C35.2 71.6004 35.2 71.831 35.2 72.0615C35.3156 72.5227 35.5466 72.9839 35.8932 73.4451C36.5864 73.9063 36.933 74.2522 37.2796 74.5981Z" fill="#DD9078"/>
<path d="M55.4177 61.8C55.4177 61.8 55.5333 62.0306 55.6488 62.4918C55.7643 62.7224 55.7643 62.953 55.8798 63.1835C55.9954 63.4141 56.1109 63.76 56.342 64.1059C56.4575 64.4518 56.8041 64.6824 56.9196 65.0283C57.0351 65.1436 57.1507 65.2589 57.3817 65.4895C57.4973 65.6048 57.6128 65.7201 57.8438 65.8354C58.1904 66.066 58.537 66.1813 58.8836 66.2966C59.1147 66.2966 59.2302 66.4119 59.4613 66.4119C59.6923 66.4119 59.8079 66.4119 60.0389 66.2966L60.6166 66.066L61.1942 65.7201C61.5408 65.4895 61.7719 65.1436 62.0029 64.7977C62.234 64.4518 62.3495 64.1059 62.5806 63.76C62.6961 63.4141 62.8116 63.0683 62.8116 62.6071C62.8116 62.2612 62.8116 61.9153 62.9272 61.6847C62.9272 61.3388 62.9272 61.1082 62.9272 60.8776C62.9272 60.4164 62.9272 60.1858 62.9272 60.1858C62.9272 60.1858 63.0427 60.4164 63.1582 60.8776C63.2737 61.1082 63.2738 61.3388 63.3893 61.6847C63.3893 62.0306 63.5048 62.3765 63.5048 62.7224C63.5048 63.0682 63.5048 63.5294 63.3893 63.9906C63.2738 64.4518 63.1582 64.913 62.9272 65.3742C62.6961 65.8354 62.3495 66.2966 61.8874 66.6425L61.1942 67.1037C60.9632 67.219 60.6166 67.3343 60.3855 67.4496C60.1544 67.4496 59.8079 67.5649 59.4613 67.5649C59.2302 67.5649 58.8836 67.4496 58.6526 67.4496C58.0749 67.3343 57.6128 66.9884 57.1507 66.6425C56.6886 66.2966 56.4575 65.8354 56.2264 65.4895C55.9954 65.0283 55.7643 64.6824 55.6488 64.3365C55.5333 63.9906 55.4177 63.6447 55.4177 63.2988C55.4177 62.953 55.4177 62.7224 55.4177 62.4918C55.4177 62.0306 55.4177 61.8 55.4177 61.8Z" fill="#1F2733"/>
<path d="M76.3287 58.341C76.3287 58.341 76.4443 58.5716 76.5598 59.0328C76.6753 59.2634 76.6753 59.494 76.7908 59.7246C76.9064 59.9552 77.0219 60.3011 77.253 60.647C77.3685 60.9929 77.7151 61.2235 77.8306 61.5694C77.9462 61.6847 78.0617 61.8 78.2927 62.0306C78.4083 62.1459 78.5238 62.2612 78.7549 62.3765C79.1015 62.6071 79.448 62.7224 79.7946 62.8377C80.0257 62.8377 80.1412 62.953 80.3723 62.953C80.6033 62.953 80.7189 62.953 80.9499 62.8377L81.5276 62.6071L82.1052 62.2612C82.4518 62.0306 82.6829 61.6847 82.9139 61.3388C83.145 60.9929 83.2605 60.647 83.4916 60.3011C83.6071 59.9552 83.7226 59.6093 83.7226 59.1481C83.7226 58.8022 83.7226 58.4563 83.8382 58.2257C83.8382 57.8798 83.8382 57.6493 83.8382 57.4187C83.8382 56.9575 83.8382 56.7269 83.8382 56.7269C83.8382 56.7269 83.9537 56.9575 84.0692 57.4187C84.1848 57.6493 84.1848 57.8798 84.3003 58.2257C84.3003 58.5716 84.4158 58.9175 84.4158 59.2634C84.4158 59.6093 84.4158 60.0705 84.3003 60.5317C84.1848 60.9929 84.0692 61.4541 83.8382 61.9153C83.6071 62.3765 83.2605 62.8377 82.7984 63.1836L82.1052 63.6448C81.8742 63.7601 81.5276 63.8754 81.2965 63.9907C81.0655 63.9907 80.7189 64.106 80.3723 64.106C80.1412 64.106 79.7946 63.9907 79.5636 63.9907C78.9859 63.8754 78.5238 63.5295 78.0617 63.1836C77.5996 62.8377 77.3685 62.3765 77.1374 62.0306C76.9064 61.5694 76.6753 61.2235 76.5598 60.8776C76.4443 60.5317 76.3287 60.1858 76.3287 59.8399C76.3287 59.494 76.3287 59.2634 76.3287 59.0328C76.3287 58.5716 76.3287 58.341 76.3287 58.341Z" fill="#1F2733"/>
<path d="M57.2374 78.1034C57.2374 78.1034 57.1218 78.1034 57.2374 78.2187C57.3529 78.334 57.584 78.4493 57.815 78.5646C58.2771 78.9105 59.0858 79.2564 60.0101 79.7176C60.9343 80.1788 62.0896 80.64 63.2449 80.9859C63.8226 81.2165 64.5157 81.3318 65.0934 81.4471C65.671 81.5624 66.3642 81.6777 67.0574 81.793C68.3282 81.9083 69.599 82.0236 70.8699 81.9083C72.1407 81.793 73.1805 81.5624 74.2202 81.2165C75.1445 80.8706 75.9532 80.64 76.5308 80.4094C77.1085 80.1788 77.4551 80.0635 77.4551 80.0635C77.4551 80.0635 77.224 80.4094 76.7619 80.7553C76.2998 81.2165 75.6066 81.793 74.6824 82.3695C73.7581 82.946 72.4873 83.5225 71.1009 83.7531C69.7146 84.099 68.2127 84.099 66.7108 83.9837C66.0176 83.8684 65.2089 83.7531 64.5157 83.5225C63.8226 83.2919 63.1294 83.0613 62.5517 82.7154C61.2809 82.1389 60.2411 81.4471 59.4324 80.7553C58.6237 80.0635 57.9305 79.3717 57.584 78.7952C57.3529 78.5646 57.2374 78.334 57.2374 78.1034C57.1218 78.1034 57.1218 78.2187 57.2374 78.1034Z" fill="#DD9078"/>
<path d="M75.2891 105.613C75.2891 105.613 104.865 102.5 108.677 125.099C112.49 147.813 112.143 153.923 112.143 153.923L83.2606 149.657L75.2891 105.613Z" fill="#8257E6"/>
<path d="M100.242 123.83C98.5095 109.417 83.8372 106.304 75.288 105.612C71.4755 110.916 66.1612 114.721 58.8828 114.952C50.5646 115.182 42.9397 112.3 38.8961 105.958C25.9568 107.457 13.133 111.147 10.2447 119.909C4.12166 138.357 9.43602 239.82 9.43602 239.82C9.43602 239.82 61.1934 248.698 103.708 240.627C103.593 240.742 102.553 143.084 100.242 123.83Z" fill="#8257E6"/>
<path opacity="0.2" d="M7.24194 169.258C7.473 202.695 9.43701 239.936 9.43701 239.936C9.43701 239.936 61.1944 248.814 103.709 240.743C103.709 240.743 102.901 166.606 101.168 134.784C69.8591 146.429 38.5505 157.959 7.24194 169.258Z" fill="#352C38"/>
<path d="M39.1277 196.007C39.1277 196.007 37.9724 192.664 43.2868 190.473C48.6011 188.282 103.362 173.985 106.828 174.447C110.294 174.908 152.693 179.981 153.387 182.287C154.08 184.593 102.669 201.196 102.669 201.196L39.1277 196.007Z" fill="#E1EDFF"/>
<path d="M105.558 205.577C105.558 205.577 45.5979 205.347 40.9767 199.928C36.3555 194.509 36.24 190.588 62.4652 195.2C88.6905 199.812 103.825 199.121 103.825 199.121C103.825 199.121 151.885 176.753 153.503 182.172C155.005 187.706 160.088 186.322 105.558 205.577Z" fill="#C0D5FF"/>
<path d="M153.387 182.287C151.885 176.868 103.709 199.236 103.709 199.236C103.709 199.236 103.594 199.236 103.247 199.236C104.287 201.311 105.096 203.271 106.02 205.462C160.088 186.322 155.005 187.706 153.387 182.287Z" fill="#B1C5E8"/>
<path d="M37.3943 183.671C37.3943 183.671 36.239 180.327 41.5534 178.136C46.8677 175.946 101.629 161.649 105.095 162.11C108.561 162.571 150.96 167.644 151.653 169.95C152.346 172.256 100.936 188.859 100.936 188.859L37.3943 183.671Z" fill="#E1EDFF"/>
<path d="M103.824 193.356C103.824 193.356 43.8645 193.125 39.2433 187.706C34.6221 182.287 34.5066 178.367 60.7318 182.979C86.9571 187.591 102.091 186.899 102.091 186.899C102.091 186.899 150.152 164.531 151.769 169.95C153.156 175.369 158.354 173.986 103.824 193.356Z" fill="#C0D5FF"/>
<path d="M151.654 170.065C150.152 164.646 101.976 187.014 101.976 187.014C101.976 187.014 101.861 187.014 101.514 187.014C102.554 189.09 103.363 191.05 104.287 193.24C158.239 173.986 153.156 175.369 151.654 170.065Z" fill="#B1C5E8"/>
<path d="M37.1636 173.64C37.1636 173.64 36.1238 170.757 41.2071 168.797C46.2904 166.837 99.3186 154.269 102.669 154.731C106.019 155.192 147.032 159.688 147.726 161.648C148.419 163.609 98.6254 178.367 98.6254 178.367L37.1636 173.64Z" fill="#E1EDFF"/>
<path d="M101.399 182.172C101.399 182.172 43.4028 181.941 38.8972 177.214C34.3915 172.487 34.3915 169.028 59.6925 173.063C84.9936 177.098 99.6658 176.522 99.6658 176.522C99.6658 176.522 146.224 156.806 147.726 161.648C149.228 166.376 154.196 165.107 101.399 182.172Z" fill="#C0D5FF"/>
<path d="M147.726 161.649C146.224 156.921 99.6658 176.522 99.6658 176.522C99.6658 176.522 99.5503 176.522 99.2037 176.522C100.128 178.252 101.052 180.096 101.861 181.941C154.196 165.107 149.228 166.376 147.726 161.649Z" fill="#B1C5E8"/>
<path d="M38.781 160.15C38.781 160.15 37.8568 157.267 43.0556 155.422C48.2544 153.693 101.629 143.085 104.98 143.662C108.33 144.123 149.112 150.234 149.69 152.194C150.267 154.154 100.012 166.952 100.012 166.952L38.781 160.15Z" fill="white"/>
<path d="M102.67 171.102C102.67 171.102 44.6737 168.681 40.3991 163.838C36.1245 158.88 36.1245 155.537 61.31 160.494C86.4955 165.452 101.168 165.452 101.168 165.452C101.168 165.452 148.419 147.581 149.69 152.308C151.077 157.036 156.044 155.998 102.67 171.102Z" fill="#C0D5FF"/>
<path d="M149.69 152.309C148.419 147.467 101.168 165.453 101.168 165.453C101.168 165.453 101.052 165.453 100.706 165.453C101.63 167.298 102.439 169.143 103.132 170.988C155.929 155.999 150.961 157.037 149.69 152.309Z" fill="#B1C5E8"/>
<path d="M8.62842 162.34L37.1643 155.422C37.1643 155.422 43.2874 196.93 44.9048 199.236C46.5222 201.542 94.236 203.848 94.236 203.848L108.1 204.655C108.1 204.655 49.526 229.213 32.6586 219.298C15.5602 209.151 8.62842 162.34 8.62842 162.34Z" fill="#FFB39F"/>
<path d="M11.4011 167.298C20.1814 164.646 28.7306 161.418 37.7419 159.458C37.3953 156.921 37.1643 155.422 37.1643 155.422L8.62842 162.34C8.62842 162.34 8.975 164.416 9.55265 167.875C10.2458 167.644 10.8235 167.413 11.4011 167.298Z" fill="#E09B8D"/>
<path d="M102.785 208.46C102.785 208.46 124.505 202.695 124.505 198.313C124.505 193.932 116.649 178.136 122.194 199.236C122.194 199.236 110.641 170.642 119.884 200.619C119.884 200.619 110.872 177.329 116.995 201.196C116.995 201.196 107.753 185.054 114.454 202.349L106.136 205.462L86.1489 205.231L75.5201 215.608L102.785 208.46Z" fill="#FFB39F"/>
<path d="M153.618 187.36C153.618 187.36 142.065 158.766 151.308 188.744C151.308 188.744 142.296 165.453 148.419 189.32C148.419 189.32 139.177 173.178 145.069 190.588L138.715 193.586C141.026 193.817 144.029 193.701 146.455 192.894C153.849 191.395 155.929 188.859 155.929 186.553C155.929 182.172 148.073 166.376 153.618 187.36Z" fill="#FFB39F"/>
<path d="M183.078 490.825C183.078 494.976 179.728 498.435 175.569 498.55C171.41 498.55 167.944 495.207 167.828 491.056L167.482 466.613C167.482 462.462 170.832 459.003 174.991 458.888C179.15 458.888 182.616 462.231 182.732 466.382L183.078 490.825Z" fill="#091E1D"/>
<path d="M76.6753 492.095C76.6753 496.245 73.3249 499.704 69.1658 499.82C65.0067 499.82 61.5408 496.476 61.4253 492.325L61.0787 467.882C61.0787 463.731 64.4291 460.272 68.5882 460.157C72.7472 460.157 76.2131 463.501 76.3287 467.651L76.6753 492.095Z" fill="#091E1D"/>
<path d="M174.529 473.415C174.644 482.87 167.019 490.595 157.546 490.71L86.3797 491.517C76.9062 491.633 69.1657 484.023 69.0502 474.568L61.4252 312.92C61.3097 303.466 68.9347 295.741 78.4081 295.625L161.012 294.588C170.485 294.472 178.226 302.082 178.341 311.536L174.529 473.415Z" fill="#322153"/>
<path d="M177.879 327.793L178.226 311.767C178.11 302.312 170.37 294.703 160.896 294.818L78.2926 295.856C68.8192 295.971 61.1942 303.696 61.3098 313.151L62.1185 329.177L177.879 327.793Z" fill="#1C0C3B"/>
<path d="M191.974 307.732C191.974 310.383 189.894 312.459 187.237 312.574L52.2985 314.188C49.6413 314.188 47.5618 312.113 47.4463 309.461L47.2152 292.397C47.2152 289.745 49.2947 287.67 51.9519 287.554L186.891 285.94C189.548 285.94 191.627 288.016 191.743 290.667L191.974 307.732Z" fill="#322153"/>
<path d="M120.345 355.119L136.057 345.665L132.245 355.465L120.345 355.119Z" fill="white"/>
<path d="M114.453 340.246C114.453 340.246 115.724 340.246 117.688 343.243C119.652 346.241 124.042 354.312 124.042 354.312L132.014 350.738L133.862 347.625C133.862 347.625 130.397 340.707 127.624 340.246H114.453Z" fill="white"/>
<path d="M110.063 342.321C110.063 342.321 112.49 339.669 114.454 341.053C116.418 342.437 119.883 348.202 119.883 348.202L114.223 358.117L104.056 352.468L110.063 342.321Z" fill="white"/>
<path d="M127.508 367.456L128.317 385.673L121.501 377.718L127.508 367.456Z" fill="white"/>
<path d="M143.452 369.301C143.452 369.301 142.874 370.454 139.292 370.8C135.711 371.146 126.469 371.146 126.469 371.146L125.776 379.908L127.624 383.021C127.624 383.021 135.364 383.367 137.097 381.061L143.452 369.301Z" fill="white"/>
<path d="M143.567 364.458C143.567 364.458 144.838 367.802 142.643 368.955C140.563 369.993 133.747 370.223 133.747 370.223L127.624 360.538L137.444 354.197L143.567 364.458Z" fill="white"/>
<path d="M113.759 367.226L97.5853 358.693L107.867 356.849L113.759 367.226Z" fill="white"/>
<path d="M104.056 380.024C104.056 380.024 103.363 378.986 104.865 375.758C106.366 372.529 110.988 364.574 110.988 364.574L103.825 359.616L100.243 359.731C100.243 359.731 96.0843 366.303 97.124 368.84L104.056 380.024Z" fill="white"/>
<path d="M108.215 382.56C108.215 382.56 104.633 381.868 104.864 379.562C104.98 377.141 108.215 371.261 108.215 371.261L119.652 370.915L120.114 382.56H108.215Z" fill="white"/>
</svg>
